<svg width="111" height="20" viewBox="0 0 111 20" fill="none" xmlns="http://www.w3.org/2000/svg">
<path d="M16.6489 9.70156V14.9892C16.6489 15.6946 16.3687 16.371 15.8699 16.8698C15.3711 17.3686 14.6947 17.6488 13.9893 17.6488H6.01045C5.30508 17.6488 4.62859 17.3686 4.12982 16.8698C3.63104 16.371 3.35083 15.6946 3.35083 14.9892V9.70156L8.00516 3.68584H11.9946L16.6489 9.70156Z" fill="#9282FA" fill-opacity="0.4"/>
<path d="M19.2844 10.0855L17.9197 2.77159C17.8864 2.59331 17.8169 2.42374 17.7156 2.2733C17.6143 2.12286 17.4833 1.99472 17.3306 1.89679C17.1779 1.79886 17.0069 1.73319 16.8278 1.70382C16.6489 1.67446 16.4658 1.68201 16.2898 1.72603L16.2641 1.73351L11.899 3.02093H8.10072L3.73562 1.73767L3.70985 1.73019C3.5339 1.68617 3.35081 1.67861 3.17183 1.70798C2.99285 1.73735 2.82177 1.80302 2.66911 1.90095C2.51645 1.99888 2.38544 2.12701 2.28413 2.27745C2.18282 2.42789 2.11335 2.59746 2.08001 2.77575L0.715295 10.0855C0.656937 10.3783 0.700259 10.6822 0.838083 10.947C0.975914 11.2117 1.20001 11.4216 1.47328 11.5417C1.64829 11.622 1.83844 11.6639 2.03097 11.6647C2.26142 11.6646 2.48761 11.6026 2.6859 11.4852V14.9892C2.6859 15.871 3.03617 16.7165 3.65963 17.34C4.2831 17.9635 5.12871 18.3137 6.01042 18.3137H13.9893C14.871 18.3137 15.7166 17.9635 16.34 17.34C16.9636 16.7165 17.3138 15.871 17.3138 14.9892V11.486C17.5119 11.6032 17.7378 11.6652 17.9679 11.6655C18.1606 11.6649 18.3511 11.6233 18.5264 11.5433C18.8 11.4232 19.0243 11.2131 19.1622 10.9479C19.3 10.6828 19.3432 10.3785 19.2844 10.0855ZM2.021 10.3349L3.38655 3.02093L6.88311 4.04904L2.021 10.3349ZM13.9893 16.9839H10.6648V15.9292L11.8001 14.7947C11.9248 14.67 11.9949 14.5008 11.9949 14.3243C11.9949 14.1478 11.9248 13.9786 11.8001 13.8539C11.6753 13.7291 11.5061 13.6591 11.3297 13.6591C11.1532 13.6591 10.984 13.7291 10.8592 13.8539L9.99985 14.7141L9.14047 13.8539C9.01571 13.7291 8.84649 13.6591 8.67005 13.6591C8.4936 13.6591 8.32438 13.7291 8.19963 13.8539C8.07487 13.9786 8.00473 14.1479 8.00473 14.3243C8.00473 14.5007 8.07487 14.67 8.19963 14.7947L9.33495 15.9292V16.9839H6.01042C5.48139 16.9839 4.97403 16.7737 4.59995 16.3997C4.22587 16.0256 4.01571 15.5182 4.01571 14.9892V9.92846L8.33178 4.35074H11.6679L15.984 9.92846V14.9892C15.984 15.5182 15.7738 16.0256 15.3997 16.3997C15.0257 16.7737 14.5183 16.9839 13.9893 16.9839ZM17.9787 10.3349L13.1166 4.04904L16.6132 3.02093L17.9787 10.3349ZM8.00514 11.3322C8.00514 11.5295 7.94663 11.7223 7.83709 11.8863C7.72746 12.0503 7.57169 12.1782 7.38945 12.2537C7.20721 12.3292 7.00667 12.3489 6.8132 12.3104C6.61974 12.2719 6.44203 12.1769 6.30254 12.0374C6.16306 11.898 6.06807 11.7203 6.02959 11.5268C5.99111 11.3333 6.01085 11.1328 6.08634 10.9506C6.16183 10.7683 6.28967 10.6126 6.45368 10.5029C6.6177 10.3934 6.81052 10.3349 7.00778 10.3349C7.27229 10.3349 7.52598 10.4399 7.713 10.627C7.90009 10.814 8.00514 11.0677 8.00514 11.3322ZM13.9893 11.3322C13.9893 11.5295 13.9308 11.7223 13.8212 11.8863C13.7116 12.0503 13.5558 12.1782 13.3736 12.2537C13.1913 12.3292 12.9908 12.3489 12.7974 12.3104C12.6039 12.2719 12.4262 12.1769 12.2867 12.0374C12.1472 11.898 12.0522 11.7203 12.0137 11.5268C11.9752 11.3333 11.995 11.1328 12.0705 10.9506C12.146 10.7683 12.2738 10.6126 12.4378 10.5029C12.6018 10.3934 12.7947 10.3349 12.9919 10.3349C13.2565 10.3349 13.5101 10.4399 13.6971 10.627C13.8842 10.814 13.9893 11.0677 13.9893 11.3322Z" fill="#9282FA"/>
<path d="M24 15.1933V4.79333H27.9467L29.88 13.4333H30.36L32.2933 4.79333H36.24V15.1933H34.16V6.63333H33.8133L31.92 15.1933H28.2133L26.32 6.63333H25.9733V15.1933H24Z" fill="#9282FA"/>
<path d="M42.5856 15.3933C41.0834 15.3933 39.9634 15.0067 39.2256 14.2333C38.4967 13.4511 38.1323 12.3355 38.1323 10.8867V4.79333H40.399V10.82C40.399 11.6733 40.559 12.34 40.879 12.82C41.2078 13.3 41.7856 13.54 42.6123 13.54C43.4478 13.54 44.0256 13.3 44.3456 12.82C44.6656 12.34 44.8256 11.6733 44.8256 10.82V4.79333H47.039V10.8867C47.039 12.3355 46.6745 13.4511 45.9456 14.2333C45.2167 15.0067 44.0967 15.3933 42.5856 15.3933Z" fill="#9282FA"/>
<path d="M48.9375 15.1933V4.79333H52.8042L56.0308 13.4333H56.3508V4.79333H58.3775V15.1933H54.4842L51.2708 6.55333H50.9642V15.1933H48.9375Z" fill="#9282FA"/>
<path d="M60.4062 15.1933V4.79333H64.1129C65.9618 4.79333 67.304 5.2511 68.1396 6.16666C68.9751 7.07333 69.3929 8.34888 69.3929 9.99333C69.3929 11.6378 68.9751 12.9178 68.1396 13.8333C67.304 14.74 65.9618 15.1933 64.1129 15.1933H60.4062ZM62.6463 13.46H63.9796C64.664 13.46 65.2329 13.3578 65.6862 13.1533C66.1485 12.94 66.4951 12.5844 66.7262 12.0867C66.9574 11.58 67.0729 10.8822 67.0729 9.99333C67.0729 9.10444 66.9574 8.4111 66.7262 7.91333C66.4951 7.40666 66.1485 7.0511 65.6862 6.84666C65.2329 6.63333 64.664 6.52666 63.9796 6.52666H62.6463V13.46Z" fill="#9282FA"/>
<path d="M75.1325 15.38C74.0303 15.38 73.1103 15.1622 72.3725 14.7267C71.6436 14.2822 71.0969 13.6555 70.7325 12.8467C70.3769 12.0378 70.1992 11.0867 70.1992 9.99333C70.1992 8.8911 70.3769 7.93999 70.7325 7.13999C71.0969 6.3311 71.6436 5.70888 72.3725 5.27333C73.1103 4.82888 74.0303 4.60666 75.1325 4.60666C76.2436 4.60666 77.1636 4.82888 77.8925 5.27333C78.6214 5.70888 79.1636 6.3311 79.5192 7.13999C79.8836 7.93999 80.0658 8.8911 80.0658 9.99333C80.0658 11.0867 79.8836 12.0378 79.5192 12.8467C79.1636 13.6555 78.6214 14.2822 77.8925 14.7267C77.1636 15.1622 76.2436 15.38 75.1325 15.38ZM75.1325 13.7C76.0303 13.7 76.6881 13.38 77.1058 12.74C77.5325 12.0911 77.7458 11.1755 77.7458 9.99333C77.7458 8.80221 77.5325 7.88666 77.1058 7.24666C76.6881 6.60666 76.0303 6.28666 75.1325 6.28666C74.2347 6.28666 73.5725 6.60666 73.1458 7.24666C72.7281 7.88666 72.5192 8.80221 72.5192 9.99333C72.5192 11.1755 72.7281 12.0911 73.1458 12.74C73.5725 13.38 74.2347 13.7 75.1325 13.7Z" fill="#9282FA"/>
<path d="M84.6875 15.1933V4.79333H89.0342C90.3675 4.79333 91.3408 5.07777 91.9542 5.64666C92.5675 6.20666 92.8742 6.96221 92.8742 7.91333C92.8742 8.86444 92.5675 9.62444 91.9542 10.1933C91.3497 10.7622 90.3764 11.0467 89.0342 11.0467H86.9008V15.1933H84.6875ZM86.9008 9.36666H88.7008C89.3053 9.36666 89.7764 9.26444 90.1142 9.05999C90.4608 8.84666 90.6342 8.46888 90.6342 7.92666C90.6342 7.39333 90.4608 7.01999 90.1142 6.80666C89.7764 6.58444 89.3053 6.47333 88.7008 6.47333H86.9008V9.36666Z" fill="#9282FA"/>
<path d="M94.2812 15.1933V4.79333H101.375V6.55333H96.4946V8.84666H100.255V10.4733H96.4946V13.4333H101.455V15.1933H94.2812Z" fill="#9282FA"/>
<path d="M105.545 15.1933V6.55333H102.465V4.79333H110.865V6.55333H107.785V15.1933H105.545Z" fill="#9282FA"/>
</svg>
